<?xml version="1.0" encoding="UTF-8" standalone="no"?>
<svg
   width="324"
   height="324"
   version="1.1"
   id="svg190"
   sodipodi:docname="20 by 20 orthogonal maze.svg"
   xml:space="preserve"
   inkscape:version="1.3 (0e150ed6c4, 2023-07-21)"
   xmlns:inkscape="http://www.inkscape.org/namespaces/inkscape"
   xmlns:sodipodi="http://sodipodi.sourceforge.net/DTD/sodipodi-0.dtd"
   xmlns="http://www.w3.org/2000/svg"
   xmlns:svg="http://www.w3.org/2000/svg"><defs
     id="defs190" /><sodipodi:namedview
     id="namedview190"
     pagecolor="#ffffff"
     bordercolor="#000000"
     borderopacity="0.25"
     inkscape:showpageshadow="2"
     inkscape:pageopacity="0.0"
     inkscape:pagecheckerboard="0"
     inkscape:deskcolor="#d1d1d1"
     inkscape:zoom="3.2299939"
     inkscape:cx="147.98789"
     inkscape:cy="24.148652"
     inkscape:window-width="1920"
     inkscape:window-height="1008"
     inkscape:window-x="0"
     inkscape:window-y="1080"
     inkscape:window-maximized="1"
     inkscape:current-layer="svg190" /><title
     id="title1">20 by 20 orthogonal maze</title><desc
     id="desc1">20 by 20 orthogonal maze generated by The Maze Generator Website (https://www.mazegenerator.net/).</desc><g
     fill="none"
     stroke="#ffffff"
     stroke-width="2"
     stroke-linecap="square"
     id="maze"><line
       x1="2"
       y1="2"
       x2="146"
       y2="2"
       id="line1" /><line
       x1="162"
       y1="2"
       x2="322"
       y2="2"
       id="line2" /><line
       x1="18"
       y1="18"
       x2="34"
       y2="18"
       id="line3" /><line
       x1="82"
       y1="18"
       x2="98"
       y2="18"
       id="line4" /><line
       x1="114"
       y1="18"
       x2="130"
       y2="18"
       id="line5" /><line
       x1="178"
       y1="18"
       x2="210"
       y2="18"
       id="line6" /><line
       x1="242"
       y1="18"
       x2="306"
       y2="18"
       id="line7" /><line
       x1="50"
       y1="34"
       x2="66"
       y2="34"
       id="line8" /><line
       x1="98"
       y1="34"
       x2="130"
       y2="34"
       id="line9" /><line
       x1="178"
       y1="34"
       x2="194"
       y2="34"
       id="line10" /><line
       x1="210"
       y1="34"
       x2="226"
       y2="34"
       id="line11" /><line
       x1="258"
       y1="34"
       x2="290"
       y2="34"
       id="line12" /><line
       x1="18"
       y1="50"
       x2="50"
       y2="50"
       id="line13" /><line
       x1="66"
       y1="50"
       x2="82"
       y2="50"
       id="line14" /><line
       x1="130"
       y1="50"
       x2="146"
       y2="50"
       id="line15" /><line
       x1="162"
       y1="50"
       x2="178"
       y2="50"
       id="line16" /><line
       x1="194"
       y1="50"
       x2="210"
       y2="50"
       id="line17" /><line
       x1="226"
       y1="50"
       x2="242"
       y2="50"
       id="line18" /><line
       x1="258"
       y1="50"
       x2="290"
       y2="50"
       id="line19" /><line
       x1="82"
       y1="66"
       x2="130"
       y2="66"
       id="line20" /><line
       x1="146"
       y1="66"
       x2="162"
       y2="66"
       id="line21" /><line
       x1="210"
       y1="66"
       x2="258"
       y2="66"
       id="line22" /><line
       x1="274"
       y1="66"
       x2="322"
       y2="66"
       id="line23" /><line
       x1="34"
       y1="82"
       x2="66"
       y2="82"
       id="line24" /><line
       x1="82"
       y1="82"
       x2="114"
       y2="82"
       id="line25" /><line
       x1="130"
       y1="82"
       x2="146"
       y2="82"
       id="line26" /><line
       x1="162"
       y1="82"
       x2="178"
       y2="82"
       id="line27" /><line
       x1="242"
       y1="82"
       x2="274"
       y2="82"
       id="line28" /><line
       x1="114"
       y1="98"
       x2="194"
       y2="98"
       id="line29" /><line
       x1="210"
       y1="98"
       x2="306"
       y2="98"
       id="line30" /><line
       x1="18"
       y1="114"
       x2="82"
       y2="114"
       id="line31" /><line
       x1="114"
       y1="114"
       x2="130"
       y2="114"
       id="line32" /><line
       x1="146"
       y1="114"
       x2="162"
       y2="114"
       id="line33" /><line
       x1="178"
       y1="114"
       x2="210"
       y2="114"
       id="line34" /><line
       x1="274"
       y1="114"
       x2="290"
       y2="114"
       id="line35" /><line
       x1="2"
       y1="130"
       x2="114"
       y2="130"
       id="line36" /><line
       x1="162"
       y1="130"
       x2="210"
       y2="130"
       id="line37" /><line
       x1="226"
       y1="130"
       x2="274"
       y2="130"
       id="line38" /><line
       x1="18"
       y1="146"
       x2="34"
       y2="146"
       id="line39" /><line
       x1="82"
       y1="146"
       x2="162"
       y2="146"
       id="line40" /><line
       x1="194"
       y1="146"
       x2="210"
       y2="146"
       id="line41" /><line
       x1="242"
       y1="146"
       x2="274"
       y2="146"
       id="line42" /><line
       x1="34"
       y1="162"
       x2="82"
       y2="162"
       id="line43" /><line
       x1="114"
       y1="162"
       x2="178"
       y2="162"
       id="line44" /><line
       x1="194"
       y1="162"
       x2="258"
       y2="162"
       id="line45" /><line
       x1="290"
       y1="162"
       x2="322"
       y2="162"
       id="line46" /><line
       x1="98"
       y1="178"
       x2="114"
       y2="178"
       id="line47" /><line
       x1="178"
       y1="178"
       x2="194"
       y2="178"
       id="line48" /><line
       x1="210"
       y1="178"
       x2="226"
       y2="178"
       id="line49" /><line
       x1="242"
       y1="178"
       x2="306"
       y2="178"
       id="line50" /><line
       x1="34"
       y1="194"
       x2="66"
       y2="194"
       id="line51" /><line
       x1="82"
       y1="194"
       x2="98"
       y2="194"
       id="line52" /><line
       x1="114"
       y1="194"
       x2="146"
       y2="194"
       id="line53" /><line
       x1="162"
       y1="194"
       x2="194"
       y2="194"
       id="line54" /><line
       x1="226"
       y1="194"
       x2="274"
       y2="194"
       id="line55" /><line
       x1="18"
       y1="210"
       x2="82"
       y2="210"
       id="line56" /><line
       x1="130"
       y1="210"
       x2="162"
       y2="210"
       id="line57" /><line
       x1="178"
       y1="210"
       x2="194"
       y2="210"
       id="line58" /><line
       x1="242"
       y1="210"
       x2="306"
       y2="210"
       id="line59" /><line
       x1="2"
       y1="226"
       x2="34"
       y2="226"
       id="line60" /><line
       x1="82"
       y1="226"
       x2="130"
       y2="226"
       id="line61" /><line
       x1="162"
       y1="226"
       x2="194"
       y2="226"
       id="line62" /><line
       x1="226"
       y1="226"
       x2="242"
       y2="226"
       id="line63" /><line
       x1="258"
       y1="226"
       x2="274"
       y2="226"
       id="line64" /><line
       x1="290"
       y1="226"
       x2="306"
       y2="226"
       id="line65" /><line
       x1="18"
       y1="242"
       x2="66"
       y2="242"
       id="line66" /><line
       x1="98"
       y1="242"
       x2="114"
       y2="242"
       id="line67" /><line
       x1="162"
       y1="242"
       x2="178"
       y2="242"
       id="line68" /><line
       x1="194"
       y1="242"
       x2="226"
       y2="242"
       id="line69" /><line
       x1="274"
       y1="242"
       x2="306"
       y2="242"
       id="line70" /><line
       x1="34"
       y1="258"
       x2="82"
       y2="258"
       id="line71" /><line
       x1="98"
       y1="258"
       x2="130"
       y2="258"
       id="line72" /><line
       x1="146"
       y1="258"
       x2="162"
       y2="258"
       id="line73" /><line
       x1="178"
       y1="258"
       x2="210"
       y2="258"
       id="line74" /><line
       x1="242"
       y1="258"
       x2="274"
       y2="258"
       id="line75" /><line
       x1="306"
       y1="258"
       x2="322"
       y2="258"
       id="line76" /><line
       x1="18"
       y1="274"
       x2="50"
       y2="274"
       id="line77" /><line
       x1="82"
       y1="274"
       x2="98"
       y2="274"
       id="line78" /><line
       x1="114"
       y1="274"
       x2="194"
       y2="274"
       id="line79" /><line
       x1="210"
       y1="274"
       x2="226"
       y2="274"
       id="line80" /><line
       x1="242"
       y1="274"
       x2="258"
       y2="274"
       id="line81" /><line
       x1="290"
       y1="274"
       x2="306"
       y2="274"
       id="line82" /><line
       x1="34"
       y1="290"
       x2="114"
       y2="290"
       id="line83" /><line
       x1="146"
       y1="290"
       x2="178"
       y2="290"
       id="line84" /><line
       x1="194"
       y1="290"
       x2="210"
       y2="290"
       id="line85" /><line
       x1="226"
       y1="290"
       x2="242"
       y2="290"
       id="line86" /><line
       x1="50"
       y1="306"
       x2="82"
       y2="306"
       id="line87" /><line
       x1="98"
       y1="306"
       x2="130"
       y2="306"
       id="line88" /><line
       x1="242"
       y1="306"
       x2="290"
       y2="306"
       id="line89" /><line
       x1="306"
       y1="306"
       x2="322"
       y2="306"
       id="line90" /><line
       x1="2"
       y1="322"
       x2="162"
       y2="322"
       id="line91" /><line
       x1="178"
       y1="322"
       x2="322"
       y2="322"
       id="line92" /><line
       x1="2"
       y1="2"
       x2="2"
       y2="322"
       id="line93" /><line
       x1="18"
       y1="18"
       x2="18"
       y2="34"
       id="line94" /><line
       x1="18"
       y1="50"
       x2="18"
       y2="114"
       id="line95" /><line
       x1="18"
       y1="162"
       x2="18"
       y2="210"
       id="line96" /><line
       x1="18"
       y1="242"
       x2="18"
       y2="306"
       id="line97" /><line
       x1="34"
       y1="18"
       x2="34"
       y2="50"
       id="line98" /><line
       x1="34"
       y1="66"
       x2="34"
       y2="98"
       id="line99" /><line
       x1="34"
       y1="146"
       x2="34"
       y2="194"
       id="line100" /><line
       x1="34"
       y1="226"
       x2="34"
       y2="242"
       id="line101" /><line
       x1="34"
       y1="306"
       x2="34"
       y2="322"
       id="line102" /><line
       x1="50"
       y1="2"
       x2="50"
       y2="34"
       id="line103" /><line
       x1="50"
       y1="50"
       x2="50"
       y2="66"
       id="line104" /><line
       x1="50"
       y1="98"
       x2="50"
       y2="114"
       id="line105" /><line
       x1="50"
       y1="130"
       x2="50"
       y2="146"
       id="line106" /><line
       x1="50"
       y1="162"
       x2="50"
       y2="178"
       id="line107" /><line
       x1="50"
       y1="210"
       x2="50"
       y2="226"
       id="line108" /><line
       x1="66"
       y1="18"
       x2="66"
       y2="34"
       id="line109" /><line
       x1="66"
       y1="50"
       x2="66"
       y2="98"
       id="line110" /><line
       x1="66"
       y1="146"
       x2="66"
       y2="162"
       id="line111" /><line
       x1="66"
       y1="178"
       x2="66"
       y2="194"
       id="line112" /><line
       x1="66"
       y1="226"
       x2="66"
       y2="242"
       id="line113" /><line
       x1="66"
       y1="258"
       x2="66"
       y2="290"
       id="line114" /><line
       x1="82"
       y1="2"
       x2="82"
       y2="50"
       id="line115" /><line
       x1="82"
       y1="66"
       x2="82"
       y2="114"
       id="line116" /><line
       x1="82"
       y1="162"
       x2="82"
       y2="274"
       id="line117" /><line
       x1="82"
       y1="306"
       x2="82"
       y2="322"
       id="line118" /><line
       x1="98"
       y1="34"
       x2="98"
       y2="66"
       id="line119" /><line
       x1="98"
       y1="98"
       x2="98"
       y2="130"
       id="line120" /><line
       x1="98"
       y1="146"
       x2="98"
       y2="178"
       id="line121" /><line
       x1="98"
       y1="194"
       x2="98"
       y2="210"
       id="line122" /><line
       x1="98"
       y1="242"
       x2="98"
       y2="258"
       id="line123" /><line
       x1="98"
       y1="290"
       x2="98"
       y2="306"
       id="line124" /><line
       x1="114"
       y1="2"
       x2="114"
       y2="18"
       id="line125" /><line
       x1="114"
       y1="34"
       x2="114"
       y2="50"
       id="line126" /><line
       x1="114"
       y1="82"
       x2="114"
       y2="98"
       id="line127" /><line
       x1="114"
       y1="130"
       x2="114"
       y2="146"
       id="line128" /><line
       x1="114"
       y1="178"
       x2="114"
       y2="210"
       id="line129" /><line
       x1="114"
       y1="274"
       x2="114"
       y2="290"
       id="line130" /><line
       x1="130"
       y1="98"
       x2="130"
       y2="130"
       id="line131" /><line
       x1="130"
       y1="162"
       x2="130"
       y2="178"
       id="line132" /><line
       x1="130"
       y1="210"
       x2="130"
       y2="258"
       id="line133" /><line
       x1="130"
       y1="290"
       x2="130"
       y2="306"
       id="line134" /><line
       x1="146"
       y1="2"
       x2="146"
       y2="98"
       id="line135" /><line
       x1="146"
       y1="114"
       x2="146"
       y2="146"
       id="line136" /><line
       x1="146"
       y1="178"
       x2="146"
       y2="194"
       id="line137" /><line
       x1="146"
       y1="226"
       x2="146"
       y2="258"
       id="line138" /><line
       x1="146"
       y1="290"
       x2="146"
       y2="322"
       id="line139" /><line
       x1="162"
       y1="2"
       x2="162"
       y2="50"
       id="line140" /><line
       x1="162"
       y1="114"
       x2="162"
       y2="130"
       id="line141" /><line
       x1="162"
       y1="162"
       x2="162"
       y2="226"
       id="line142" /><line
       x1="162"
       y1="258"
       x2="162"
       y2="274"
       id="line143" /><line
       x1="162"
       y1="306"
       x2="162"
       y2="322"
       id="line144" /><line
       x1="178"
       y1="18"
       x2="178"
       y2="82"
       id="line145" /><line
       x1="178"
       y1="130"
       x2="178"
       y2="162"
       id="line146" /><line
       x1="178"
       y1="226"
       x2="178"
       y2="258"
       id="line147" /><line
       x1="178"
       y1="290"
       x2="178"
       y2="306"
       id="line148" /><line
       x1="194"
       y1="50"
       x2="194"
       y2="114"
       id="line149" /><line
       x1="194"
       y1="162"
       x2="194"
       y2="178"
       id="line150" /><line
       x1="194"
       y1="210"
       x2="194"
       y2="226"
       id="line151" /><line
       x1="194"
       y1="274"
       x2="194"
       y2="290"
       id="line152" /><line
       x1="194"
       y1="306"
       x2="194"
       y2="322"
       id="line153" /><line
       x1="210"
       y1="34"
       x2="210"
       y2="66"
       id="line154" /><line
       x1="210"
       y1="82"
       x2="210"
       y2="98"
       id="line155" /><line
       x1="210"
       y1="130"
       x2="210"
       y2="146"
       id="line156" /><line
       x1="210"
       y1="178"
       x2="210"
       y2="242"
       id="line157" /><line
       x1="210"
       y1="258"
       x2="210"
       y2="274"
       id="line158" /><line
       x1="210"
       y1="290"
       x2="210"
       y2="306"
       id="line159" /><line
       x1="226"
       y1="18"
       x2="226"
       y2="34"
       id="line160" /><line
       x1="226"
       y1="82"
       x2="226"
       y2="114"
       id="line161" /><line
       x1="226"
       y1="130"
       x2="226"
       y2="162"
       id="line162" /><line
       x1="226"
       y1="178"
       x2="226"
       y2="210"
       id="line163" /><line
       x1="226"
       y1="242"
       x2="226"
       y2="274"
       id="line164" /><line
       x1="226"
       y1="290"
       x2="226"
       y2="322"
       id="line165" /><line
       x1="242"
       y1="2"
       x2="242"
       y2="50"
       id="line166" /><line
       x1="242"
       y1="114"
       x2="242"
       y2="130"
       id="line167" /><line
       x1="242"
       y1="162"
       x2="242"
       y2="178"
       id="line168" /><line
       x1="242"
       y1="210"
       x2="242"
       y2="258"
       id="line169" /><line
       x1="242"
       y1="274"
       x2="242"
       y2="290"
       id="line170" /><line
       x1="258"
       y1="34"
       x2="258"
       y2="82"
       id="line171" /><line
       x1="258"
       y1="98"
       x2="258"
       y2="114"
       id="line172" /><line
       x1="258"
       y1="226"
       x2="258"
       y2="242"
       id="line173" /><line
       x1="258"
       y1="274"
       x2="258"
       y2="306"
       id="line174" /><line
       x1="274"
       y1="82"
       x2="274"
       y2="98"
       id="line175" /><line
       x1="274"
       y1="114"
       x2="274"
       y2="130"
       id="line176" /><line
       x1="274"
       y1="146"
       x2="274"
       y2="178"
       id="line177" /><line
       x1="274"
       y1="194"
       x2="274"
       y2="210"
       id="line178" /><line
       x1="274"
       y1="226"
       x2="274"
       y2="242"
       id="line179" /><line
       x1="274"
       y1="258"
       x2="274"
       y2="290"
       id="line180" /><line
       x1="290"
       y1="66"
       x2="290"
       y2="82"
       id="line181" /><line
       x1="290"
       y1="114"
       x2="290"
       y2="162"
       id="line182" /><line
       x1="290"
       y1="178"
       x2="290"
       y2="194"
       id="line183" /><line
       x1="290"
       y1="258"
       x2="290"
       y2="306"
       id="line184" /><line
       x1="306"
       y1="18"
       x2="306"
       y2="50"
       id="line185" /><line
       x1="306"
       y1="82"
       x2="306"
       y2="146"
       id="line186" /><line
       x1="306"
       y1="194"
       x2="306"
       y2="226"
       id="line187" /><line
       x1="306"
       y1="242"
       x2="306"
       y2="258"
       id="line188" /><line
       x1="306"
       y1="274"
       x2="306"
       y2="290"
       id="line189" /><line
       x1="322"
       y1="2"
       x2="322"
       y2="322"
       id="line190" /></g><polyline
     fill="none"
     stroke="#ff0000"
     stroke-width="2"
     stroke-linecap="square"
     stroke-linejoin="round"
     points="170,322 170,314 186,314 186,298 202,298 202,314 218,314 218,282 234,282 234,266 266,266 266,298 282,298 282,250 250,250 250,218 282,218 282,234 314,234 314,186 298,186 298,202 282,202 282,186 234,186 234,170 202,170 202,186 170,186 170,170 186,170 186,154 218,154 218,122 234,122 234,106 250,106 250,122 266,122 266,106 298,106 298,154 314,154 314,74 298,74 298,90 282,90 282,74 266,74 266,58 298,58 298,26 250,26 250,58 218,58 218,42 234,42 234,10 218,10 218,26 202,26 202,42 186,42 186,90 154,90 154,74 170,74 170,58 154,58 154,2"
     id="solution" /><g
     id="movement"
     transform="translate(94,0)"><g
       id="mouse"
       transform="translate(53,3), scale(0.027)"><path
         style="fill:#c6c5ca"
         d="M 214.736,59.999 C 194.111,27.436 157.761,5.818 116.363,5.818 52.097,5.818 0,57.915 0,122.181 c 0,56.233 39.887,103.149 92.913,114"
         id="path1" /><path
         style="fill:#acaab0"
         d="M 417.821,236.433 C 471.475,226.077 512,178.861 512,122.181 512,57.915 459.902,5.818 395.636,5.818 c -41.398,0 -77.746,21.618 -98.373,54.18"
         id="path2" /><path
         style="fill:#d8d8da"
         d="m 371.193,102.417 c -63.62,-63.621 -166.767,-63.621 -230.387,0 -63.62,63.621 -63.621,166.768 0,230.387 L 256,447.999 371.194,332.805 c 63.621,-63.62 63.62,-166.767 -0.001,-230.388 z"
         id="path3" /><path
         style="fill:#c6c5ca"
         d="M 371.193,102.417 C 339.384,70.607 297.692,54.702 256,54.702 V 447.999 L 371.194,332.805 c 63.621,-63.62 63.62,-166.767 -0.001,-230.388 z"
         id="path4" /><circle
         style="fill:#ebafd1"
         cx="256"
         cy="471.27301"
         r="34.909"
         id="circle4" /><path
         style="fill:#58575d"
         d="m 215.273,290.908 h -0.002 c -12.831,0 -23.27,-10.44 -23.27,-23.273 0.005,-12.835 10.445,-23.273 23.273,-23.273 12.833,0 23.273,10.44 23.273,23.273 -0.002,12.833 -10.442,23.273 -23.274,23.273 z"
         id="path5" /><path
         style="fill:#454449"
         d="m 296.727,290.908 h -0.002 c -12.831,0 -23.27,-10.44 -23.27,-23.273 0.005,-12.835 10.445,-23.273 23.273,-23.273 12.833,0 23.273,10.44 23.273,23.273 -10e-4,12.833 -10.441,23.273 -23.274,23.273 z"
         id="path6" /><rect
         x="58.181999"
         y="314.18201"
         style="fill:#f8f8f9"
         width="162.909"
         height="34.909"
         id="rect6" /><rect
         x="290.909"
         y="314.18201"
         style="fill:#ededed"
         width="162.909"
         height="34.909"
         id="rect7" /><rect
         x="151.274"
         y="336.19299"
         transform="matrix(0.2169,0.9762,-0.9762,0.2169,512.6827,140.5648)"
         style="fill:#f8f8f9"
         width="34.909"
         height="107.276"
         id="rect8" /><rect
         x="289.62"
         y="372.37399"
         transform="matrix(0.9762,0.2169,-0.2169,0.9762,92.7249,-65.172)"
         style="fill:#ededed"
         width="107.276"
         height="34.909"
         id="rect9" /><path
         style="fill:#e592bf"
         d="M 290.909,471.272 C 290.908,451.992 275.279,436.363 256,436.361 v 69.82 c 19.279,0 34.908,-15.631 34.909,-34.909 z"
         id="path9" /></g></g></svg>
