<svg
   xml:space="preserve"
   width="250.09335"
   height="243.26387"
   style="fill-rule:evenodd;display:inline;enable-background:new"
   viewBox="0 0 70.581902 68.654472"
   id="svg3037"
   version="1.1"
   inkscape:version="1.3 (0e150ed6c4, 2023-07-21)"
   sodipodi:docname="leobots_logo.svg"
   xmlns:inkscape="http://www.inkscape.org/namespaces/inkscape"
   xmlns:sodipodi="http://sodipodi.sourceforge.net/DTD/sodipodi-0.dtd"
   xmlns:xlink="http://www.w3.org/1999/xlink"
   xmlns="http://www.w3.org/2000/svg"
   xmlns:svg="http://www.w3.org/2000/svg"
   xmlns:rdf="http://www.w3.org/1999/02/22-rdf-syntax-ns#"
   xmlns:cc="http://creativecommons.org/ns#"
   xmlns:dc="http://purl.org/dc/elements/1.1/">
   <metadata id="metadata">
    <rdf:RDF>
      <cc:Work rdf:about="">
        <dc:format>image/svg+xml</dc:format>
        <dc:type rdf:resource="http://purl.org/dc/dcmitype/StillImage" />
        <dc:title />
      </cc:Work>
    </rdf:RDF>
   </metadata>
  <sodipodi:namedview
   pagecolor="#ffffff"
   bordercolor="#666666"
   borderopacity="1"
   objecttolerance="10"
   gridtolerance="10"
   guidetolerance="10"
   inkscape:pageopacity="0"
   inkscape:pageshadow="2"
   inkscape:window-width="1920"
   inkscape:window-height="1008"
   id="namedview3049"
   showgrid="false"
   fit-margin-top="0"
   fit-margin-left="0"
   fit-margin-right="0"
   fit-margin-bottom="0"
   inkscape:zoom="1.4029761"
   inkscape:cx="128.29869"
   inkscape:cy="131.14978"
   inkscape:window-x="0"
   inkscape:window-y="0"
   inkscape:window-maximized="1"
   inkscape:current-layer="g1"
   inkscape:showpageshadow="2"
   inkscape:pagecheckerboard="0"
   inkscape:deskcolor="#d1d1d1" />
   
   <defs
   id="definitions">
  
    <style
     type="text/css"
     id="style">
      .shadow {fill:#000000}
      .blue {fill:#0073FD} 
      .green {fill:#00DA00}
      .red {fill: #ff0015;}
      .orange {fill: #ff8700;}
      .L {
        font-size:36.7406px;
      }
      .B {
        font-size:32.8827px;
      }
      text {
        font-style:oblique;
        font-weight:bold;
        line-height:1.25;
        font-family:sans-serif;
        letter-spacing:0px;
        word-spacing:0px;
        stroke:none;
      }
      </style>

    <filter
     inkscape:collect="always"
     id="green_blur"
     color-interpolation-filters="sRGB"
     x="-0.036252383"
     y="-0.035751106"
     width="1.0725048"
     height="1.0715022">
     <feGaussianBlur
       inkscape:collect="always"
       stdDeviation="0.73107613"
       id="green_feGaussianBlur" />
    </filter>

    <filter
     inkscape:collect="always"
     id="l_blur"
     color-interpolation-filters="sRGB"
     x="-0.053029328"
     y="-0.031565076"
     width="1.1060587"
     height="1.0631302">
     <feGaussianBlur
       inkscape:collect="always"
       stdDeviation="0.34501665"
       id="l_feGaussianBlur" />
    </filter>

    <filter
     inkscape:collect="always"
     id="b_blur"
     color-interpolation-filters="sRGB"
     x="-0.043045522"
     y="-0.03526839"
     width="1.086091"
     height="1.0705368">
     <feGaussianBlur
       inkscape:collect="always"
       stdDeviation="0.34501669"
       id="b_feGaussianBlur" />
    </filter>

    <filter
     inkscape:collect="always"
     id="blue_blur"
     color-interpolation-filters="sRGB"
     x="-0.040785936"
     y="-0.032219297"
     width="1.0815719"
     height="1.0644386">
     <feGaussianBlur
       inkscape:collect="always"
       stdDeviation="0.86587066"
       id="blue_feGaussianBlur" />
    </filter>
  </defs>
  
  <g
   inkscape:groupmode="layer"
   id="L"
   transform="translate(0.74878506,2.0780891)">
    <text
      xml:space="preserve"
      style="filter:url(#l_blur)"
      x="15.804689"
      y="36.434025"
      id="L_shadow"
      class="L shadow"
      transform="scale(1.0020184,0.99798567)">L</text>
    <text
      xml:space="preserve"
      x="14.790501"
      y="37.465153"
      id="L_form"
      class="L red"
      transform="scale(1.0020184,0.99798567)">L</text>
  </g>

  <g
   inkscape:groupmode="layer"
   id="B"
   transform="translate(0.74878506,2.0780891)">
   <text
   xml:space="preserve"
   style="filter:url(#b_blur)"
   x="38.151718"
   y="46.629623"
   id="B_shadow"
   class="B shadow"
   transform="scale(0.89680388,1.115071)">B</text>
   <text
   xml:space="preserve"
   x="37.016594"
   y="47.422077"
   id="B_form"
   class="B orange"
   transform="scale(0.89680388,1.115071)">B</text>
  </g>
  
  <g
   inkscape:groupmode="layer"
   id="green"
   transform="translate(0.74878506,2.0780891)">
    <path
       class="shadow"
       d="m 29.5791,55.4007 0,2.499 c 0.4872,0.8958 0.1787,1.696 1.8283,3.8652 2.2083,2.9039 7.2565,5.7646 10.7412,6.539 -0.5436,1.6188 -1.6848,2.3446 -1.2729,4.9228 0.2951,1.847 1.3915,2.9836 2.3034,3.8861 4.1053,4.0631 13.4907,5.545 19.5042,5.0178 2.8116,-0.2465 8.0336,-1.5199 9.2634,-3.1699 -3.0899,0.4151 -4.8798,1.004 -8.3884,0.9098 -4.7419,-0.1274 -10.7242,-1.8108 -14.3604,-4.454 -0.7338,-0.5335 -4.88,-4.5506 -1.8084,-5.5512 0.9571,-0.3118 6.2966,1.1898 7.7322,1.4225 5.1904,0.8412 11.8859,0.9487 16.8162,-0.7581 1.7672,-0.6117 5.3856,-2.1594 6.0403,-3.3791 -3.8588,0.2798 -7.7616,0.882 -11.5366,0.7652 -3.6208,-0.112 -7.6063,-0.3423 -11.2638,-1.0187 -6.3274,-1.1701 -14.124,-3.8064 -17.1606,-7.5038 -5.3798,-6.5502 1.7823,-11.9109 9.1896,-11.9404 3.4263,-0.0137 6.5884,1.0851 10.8469,1.1638 2.729,0.0504 8.5413,-0.7943 10.2572,-2.1474 -1.4532,-0.1392 -3.7932,0.1481 -5.4267,0.1132 -4.7863,-0.1023 -10.0547,-0.5421 -13.9631,-2.5877 -2.3155,-1.2119 -4.8003,-3.6229 -2.2672,-6.6311 1.9927,-2.3666 3.8256,-2.5982 6.9138,-4.1703 -3.9236,-0.373 -15.3512,1.9766 -13.2246,8.0209 0.8467,2.4066 2.5042,2.923 3.2187,4.0742 -1.8064,0.8632 -4.2733,0.6231 -8.6952,3.336 -1.3691,0.8399 -2.3611,1.7281 -3.2566,2.763 -0.4687,0.5416 -0.8464,1.0801 -1.2002,1.7689 -0.3758,0.7315 -0.5727,1.7649 -0.8307,2.2443 z"
       id="green_shadow"
       style="fill-opacity:0.8;filter:url(#green_blur)"
       transform="translate(-28.573303,-24.890049)"/>
    <path
       class="green"
       d="m 29.5791,55.4007 0,2.499 c 0.4872,0.8958 0.1787,1.696 1.8283,3.8652 2.2083,2.9039 7.2565,5.7646 10.7412,6.539 -0.5436,1.6188 -1.6848,2.3446 -1.2729,4.9228 0.2951,1.847 1.3915,2.9836 2.3034,3.8861 4.1053,4.0631 13.4907,5.545 19.5042,5.0178 2.8116,-0.2465 8.0336,-1.5199 9.2634,-3.1699 -3.0899,0.4151 -4.8798,1.004 -8.3884,0.9098 -4.7419,-0.1274 -10.7242,-1.8108 -14.3604,-4.454 -0.7338,-0.5335 -4.88,-4.5506 -1.8084,-5.5512 0.9571,-0.3118 6.2966,1.1898 7.7322,1.4225 5.1904,0.8412 11.8859,0.9487 16.8162,-0.7581 1.7672,-0.6117 5.3856,-2.1594 6.0403,-3.3791 -3.8588,0.2798 -7.7616,0.882 -11.5366,0.7652 -3.6208,-0.112 -7.6063,-0.3423 -11.2638,-1.0187 -6.3274,-1.1701 -14.124,-3.8064 -17.1606,-7.5038 -5.3798,-6.5502 1.7823,-11.9109 9.1896,-11.9404 3.4263,-0.0137 6.5884,1.0851 10.8469,1.1638 2.729,0.0504 8.5413,-0.7943 10.2572,-2.1474 -1.4532,-0.1392 -3.7932,0.1481 -5.4267,0.1132 -4.7863,-0.1023 -10.0547,-0.5421 -13.9631,-2.5877 -2.3155,-1.2119 -4.8003,-3.6229 -2.2672,-6.6311 1.9927,-2.3666 3.8256,-2.5982 6.9138,-4.1703 -3.9236,-0.373 -15.3512,1.9766 -13.2246,8.0209 0.8467,2.4066 2.5042,2.923 3.2187,4.0742 -1.8064,0.8632 -4.2733,0.6231 -8.6952,3.336 -1.3691,0.8399 -2.3611,1.7281 -3.2566,2.763 -0.4687,0.5416 -0.8464,1.0801 -1.2002,1.7689 -0.3758,0.7315 -0.5727,1.7649 -0.8307,2.2443 z"
       id="green_form"
       transform="translate(-30.041809,-23.772222)"/>
  </g>
  <g
   inkscape:groupmode="layer"
   id="blue"
   transform="translate(0.74878506,2.0780891)">
    <path
     class="shadow"
     d="m 48.5804,30.7695 c 2.4752,-0.5857 4.2503,-1.5152 7.2911,-1.9055 17.7957,-2.2846 35.1594,9.4008 34.5015,30.0686 -0.3706,11.643 -6.9499,18.9819 -14.2915,22.9421 -4.1051,2.2143 -9.2692,3.6936 -14.7193,3.8064 -6.4541,0.1336 -10.1494,-1.2319 -14.9792,-3.5729 2.0945,3.8217 8.7845,6.4427 14.9751,7.0887 6.8395,0.7137 13.2444,-0.6081 18.4956,-3.2983 C 88.3575,81.5422 96.6268,72.2134 97.2868,59.0199 98.0028,44.7088 90.4831,34.5244 82.3406,29.6441 71.2319,22.986 58.2693,23.2855 48.5804,30.7695 Z"
     id="blue_shadow"
     inkscape:connector-curvature="0"
     style="filter:url(#blue_blur)"
     transform="translate(-29.579101,-24.890049)" />
    <path
     class="blue"
     d="m 48.5804,30.7695 c 2.4752,-0.5857 4.2503,-1.5152 7.2911,-1.9055 17.7957,-2.2846 35.1594,9.4008 34.5015,30.0686 -0.3706,11.643 -6.9499,18.9819 -14.2915,22.9421 -4.1051,2.2143 -9.2692,3.6936 -14.7193,3.8064 -6.4541,0.1336 -10.1494,-1.2319 -14.9792,-3.5729 2.0945,3.8217 8.7845,6.4427 14.9751,7.0887 6.8395,0.7137 13.2444,-0.6081 18.4956,-3.2983 C 88.3575,81.5422 96.6268,72.2134 97.2868,59.0199 98.0028,44.7088 90.4831,34.5244 82.3406,29.6441 71.2319,22.986 58.2693,23.2855 48.5804,30.7695 Z"
     id="blue_form"
     transform="translate(-30.821989,-24.021816)" />
  </g>
</svg>
